<svg xmlns="http://www.w3.org/2000/svg" width="64" height="64" viewBox="0 0 64 64">
  <defs>
    <linearGradient id="g" x1="0" y1="0" x2="1" y2="1">
      <stop offset="0%" stop-color="#8b5cf6"/>
      <stop offset="100%" stop-color="#06b6d4"/>
    </linearGradient>
    <filter id="s" x="-20%" y="-20%" width="140%" height="140%">
      <feDropShadow dx="0" dy="2" stdDeviation="2" flood-color="rgba(0,0,0,0.25)"/>
    </filter>
  </defs>
  <rect x="4" y="4" width="56" height="56" rx="14" fill="url(#g)"/>
  <g filter="url(#s)">
    <path fill="#ffffff" d="M19 40.5c2.4 2.3 5.5 3.5 9.2 3.5 3.1 0 5.5-.7 7.4-2.1 1.9-1.4 2.8-3.2 2.8-5.5 0-2.2-.8-3.9-2.4-5-1.6-1.1-3.9-1.7-7-1.7h-3.6v-5.2h3.5c2.7 0 4.8-.5 6.2-1.5 1.4-1 2.1-2.4 2.1-4.2 0-1.8-.7-3.2-2.2-4.2-1.5-1-3.6-1.5-6.4-1.5-3.2 0-6 1-8.5 2.9l-3.1-4.3C20.5 9 24.5 7.7 29.9 7.7c4.6 0 8.2 1 10.7 2.9 2.5 1.9 3.7 4.5 3.7 7.7 0 2.6-.8 4.8-2.4 6.6-1.6 1.7-3.7 2.9-6.3 3.4v.2c3.3.4 5.9 1.5 7.7 3.3 1.8 1.8 2.7 4.1 2.7 6.8 0 3.6-1.4 6.5-4.3 8.7-2.9 2.2-6.9 3.3-12.1 3.3-5.8 0-10.5-1.7-14.1-5.2l3.4-4.9z" transform="translate(-6,6) scale(0.75)"/>
    <path fill="#ffffff" d="M43 48V24h6.7c3.6 0 6.4.9 8.4 2.6 2 1.7 3 4.2 3 7.3 0 3.2-1 5.7-3 7.5-2 1.8-4.8 2.7-8.5 2.7H49v4.9H43zm6-10.1h.9c2.2 0 3.8-.4 4.9-1.3 1.1-.9 1.7-2.2 1.7-4 0-1.7-.6-3-1.7-3.9-1.1-.9-2.7-1.3-4.7-1.3H49v10.5z" transform="translate(-8,0) scale(0.75)"/>
  </g>
</svg>
